/* XPM */
static char *collect[] = {
/* columns rows colors chars-per-pixel */
"32 32 115 2 ",
"   c None",
".  c #D93E3F",
"X  c #DB4041",
"o  c #DE4748",
"O  c #DE4849",
"+  c #E04C4D",
"@  c #E14C4D",
"#  c #E24F4F",
"$  c #E25051",
"%  c #E35051",
"&  c #E35152",
"*  c #E35253",
"=  c #E45253",
"-  c #E45354",
";  c #E55455",
":  c #E55556",
">  c #E65657",
",  c #E65758",
"<  c #E7595A",
"1  c #E85B5C",
"2  c #E95B5D",
"3  c #E95C5D",
"4  c #E95D5E",
"5  c #EA5E5E",
"6  c #EA5F5F",
"7  c #EA5F60",
"8  c #EB5F61",
"9  c #EB6060",
"0  c #EB6061",
"q  c #EB6262",
"w  c #EC6162",
"e  c #EC6163",
"r  c #EC6262",
"t  c #EC6263",
"y  c #EC6363",
"u  c #ED6264",
"i  c #EC6364",
"p  c #ED6364",
"a  c #ED6465",
"s  c #ED6565",
"d  c #EE6465",
"f  c #ED6566",
"g  c #EE6466",
"h  c #EE6566",
"j  c #ED6666",
"k  c #EE6666",
"l  c #EE6667",
"z  c #EF6667",
"x  c #EF6767",
"c  c #EE6668",
"v  c #EF6768",
"b  c #EF6769",
"n  c #EF6869",
"m  c #EF6A69",
"M  c #EF696A",
"N  c #F06769",
"B  c #F06869",
"V  c #F06969",
"C  c #F0696A",
"Z  c #F06A6B",
"A  c #F16A6B",
"S  c #F16B6B",
"D  c #F16B6C",
"F  c #F26B6D",
"G  c #F16C6D",
"H  c #F26C6D",
"J  c #F26C6E",
"K  c #F26D6E",
"L  c #F26D6F",
"P  c #F36D6F",
"I  c #F26E6E",
"U  c #F26E6F",
"Y  c #F36E6F",
"T  c #F26F6F",
"R  c #F36F70",
"E  c #F37070",
"W  c #F37171",
"Q  c #F47071",
"!  c #F47072",
"~  c #F47172",
"^  c #F57172",
"/  c #F57273",
"(  c #F47373",
")  c #F57373",
"_  c #F57374",
"`  c #F67274",
"'  c #F67374",
"]  c #F67375",
"[  c #F57474",
"{  c #F67475",
"}  c #F67476",
"|  c #F77476",
" . c #F67576",
".. c #F77576",
"X. c #F77677",
"o. c #F77778",
"O. c #F77878",
"+. c #F77979",
"@. c #F87878",
"#. c #F87879",
"$. c #F87979",
"%. c #F9787A",
"&. c #F8797A",
"*. c #F9797A",
"=. c #F97A7B",
"-. c #F97B7B",
";. c #F97A7C",
":. c #FA7A7C",
">. c #FA7B7D",
",. c #FA7C7D",
"<. c #FA7D7E",
"1. c #FB7D7E",
"2. c #FB7F7F",
"3. c #FC7E80",
"4. c #FC7F80",
/* pixels */
"                        L % % % a a                             ",
"                { *.3.*.{ a *.*.b L *.3.a ,                     ",
"            { L L a a a a a *.L R { *.L 3.{ { 3                 ",
"        . M a L 3.a 3.3.L { 3.*.3 *.{ L a a L { L %             ",
"      % a *.*.*.3.3.{ { { 3.*.a 3.3.{ *.3.3.L M M *.            ",
"      R { b 3.3.3.3.3.a *.{ #.#.L *.{ 3.*.*.3.L { o.3           ",
"    3.{ 3.*.L 3.{ a *.a 3.{ + *.3.L 3.3.{ 3.3.3.{ { *.<         ",
"  a { { 3.3.{ L *.3.{ 3 3.3.% *.3.L 3.3.L a b L { { *.3 R       ",
"  o.*.*.3.3.{ a *.{ 3.a 3.3.*.3.3.3.3.{ 3 3.3.b *.*.3.{ a       ",
"a 3.3.3.L a { *.*.L 3.a 3.3.3.3.3.3.3.3.3.3.{ 3.b 3.R 3.b       ",
"a { a *.3.3.3.3.*.*.3.*.3.b 3.3.3.a 3.3.3.{ 3.3.a *.{ 3.{ {     ",
"L a *.{ L *.3.3.*.3.3.{ 3.*.{ 3.*.{ 3.3.L *.3.*.*.3.R 3.a {     ",
"a a 3.L 3.{ *.*.3.a 3.3.3.3.a { a M 3.L R *.3.3.3.3.L 3.{ { {   ",
"a a 3.O.3.3.L *.3.R a a a a a { 3.3.3.3.L { 3.3.3.b *.o.{ { 7   ",
"  L *.a 3.3.3.a a *.3.3.3.{ 3.3.3.{ 3.3.*.3.3.3.*.L 3.3.{ *.{ { ",
"  3 { % { 3.*.b 3.3.3.3.3.{ 3.3.R *.3.3.3.3.3.3.a *.3.{ L *.{ 3 ",
"    a 3.L 3 b 3.3.3.3.3.*.3.3.3.L 3.3.*.{ *.{ L 3.3.*.b { 3.3.% ",
"    % *.{ 3 3.{ a 3.3.3.L 3.*.a { M L a b a a 3.3.3.R 3.{ 3.{ 3 ",
"          % 3.3.*.L 3.a { a b 3.L 3.3.*.3.3.L 3.3.L 3.3.a *.*.a ",
"            { 3.*.M 3.3.b 3.3.3.*.*.3.3.3.3.3.3.L { 3.*.a 3.a % ",
"            b 3.a *.3.3.{ 3.3.3.3.*.*.*.{ 3.*.*.*.3.{ *.a 3.L a ",
"              *.a { 3.3.3.b { b { *.*.*.{ 3.L L 3.M L 3.*.{ a   ",
"                3 a { *.3.3.*.3.3.3.3.3.3.3.3.3.L 3.{ *.3.a {   ",
"                  a { *.3.{ b b % + + 3 % a a a L 3.3.a 3.a     ",
"                              { {   a   +       L O             ",
"                                {               M               ",
"                                  3       a     o               ",
"                                  O.{ %           O.            ",
"                                    *.7 % X                     ",
"                                    { #.                        ",
"                                    *.3.                        ",
"                                      3                         "
};
