/* XPM */
static char *exit[] = {
/* columns rows colors chars-per-pixel */
"32 32 118 2 ",
"   c None",
".  c #040709",
"X  c #05080B",
"o  c #070D11",
"O  c #081117",
"+  c #09141B",
"@  c #0A1922",
"#  c #0C1D28",
"$  c #0D212D",
"%  c #0E2433",
"&  c #0D2739",
"*  c #0F2A3C",
"=  c #102633",
"-  c #112837",
";  c #122C3C",
":  c #15313E",
">  c #212E37",
",  c #142F40",
"<  c #143245",
"1  c #183443",
"2  c #15354B",
"3  c #183649",
"4  c #16384E",
"5  c #193A4D",
"6  c #163B53",
"7  c #1A3D53",
"8  c #163C58",
"9  c #193E58",
"0  c #123D60",
"q  c #1C4057",
"w  c #17425E",
"e  c #1B425C",
"r  c #21455D",
"t  c #174665",
"y  c #1B4562",
"u  c #1C4965",
"i  c #1C4C6B",
"p  c #1F506E",
"a  c #1C4F70",
"s  c #1D5274",
"d  c #1E5479",
"f  c #1F597C",
"g  c #204760",
"h  c #214B65",
"j  c #214E6A",
"k  c #23516C",
"l  c #29546E",
"z  c #235473",
"x  c #255977",
"c  c #2B5976",
"v  c #235679",
"b  c #245A7C",
"n  c #2A5C7B",
"m  c #325E77",
"M  c #34627C",
"N  c #245D83",
"B  c #285D80",
"V  c #256285",
"C  c #2A6180",
"Z  c #286183",
"A  c #2E6582",
"S  c #2B6385",
"D  c #276488",
"F  c #27648A",
"G  c #23638D",
"H  c #24628C",
"J  c #24628B",
"K  c #2B668D",
"L  c #2C668B",
"P  c #2E6988",
"I  c #2E6A8A",
"U  c #2B688C",
"Y  c #2F6A8E",
"T  c #306684",
"R  c #286791",
"E  c #256891",
"W  c #266892",
"Q  c #276992",
"!  c #296A90",
"~  c #296992",
"^  c #2E6B91",
"/  c #2F6E90",
"(  c #2D6D94",
")  c #2C6C94",
"_  c #286D98",
"`  c #286F9D",
"'  c #286C98",
"]  c #2B7097",
"[  c #28709B",
"{  c #2B749F",
"}  c #2F759D",
"|  c #2D759E",
" . c #2C7198",
".. c #307096",
"X. c #317096",
"o. c #307093",
"O. c #357599",
"+. c #3F7C9D",
"@. c #2B75A3",
"#. c #2977A3",
"$. c #2B76A3",
"%. c #2D74A0",
"&. c #2D7FAF",
"*. c #2E7AA9",
"=. c #3278A3",
"-. c #397CA3",
";. c #307CA8",
":. c #347FAB",
">. c #317FAC",
",. c #2F81AE",
"<. c #3381A9",
"1. c #3282AF",
"2. c #2F86B8",
"3. c #3483B1",
"4. c #3185B5",
"5. c #3987B2",
"6. c #3788B5",
"7. c #4F94BC",
/* pixels */
"                                                                ",
"                                                                ",
"                                                                ",
"                                                                ",
"                                                                ",
"                    3 7 i y s i y 9 % < 8 y                     ",
"                7 e l l e e g z e 7 4 8 h u 7 ;                 ",
"            y y s j i s j M h y e r < 6 i 9 u 3 6               ",
"          v N G W z h j v u u 9 e 7 5 i e i i e e 7             ",
"          N d ^ &.N j n e e 7 5 e w < i 7 e z y M 7 4           ",
"        s G G $.2.$.i z y y 7 y 4 e < 7 7 e i e l s e e         ",
"        N l c V 4.6...a 6 < ; ; < 7 7 < e u c e u s e 7         ",
"        b y 5 i 4.$.N 6 , % @ + @ ; 4 5 1 u n b h z l 7 a       ",
"        ^ u l b W N u < $ O X X X + = < ; 7 N L z x Z h h       ",
"      $...e a u y i 7 - + X . . . X # ; 4 q ^ >.[ ^ Z l e       ",
"      _ [ Z 7 5 u u 7 $ O X . . . X + $ 4 a [ <.>.[ T l i       ",
"      d 7.b y j l e 5 @ + X . . . X + # 6 G >.` O.U U b u       ",
"      i z n z j z j 7 % @ o . . . X + = h U =.b x +.<.U b       ",
"      u i Z i h z j q - % + o o X + $ 6 L d ` u b W ,.[ Z       ",
"      b m x j l u a u 5 ; % @ + $ * 7 s R N w b G ^ &.] b       ",
"        5 5 6 q 5 i y 7 < < * ; < 7 y i b z 6 7 L L 5.V         ",
"        ; = < ; 7 a i y 4 6 3 8 u y v i u s s 7 N B -.n         ",
"        5 - % < e i G s i e e q j 9 e 7 4 v i u i U ^ ..        ",
"          % * 4 e l p e s f b q 4 7 j 6 : e y e j b b           ",
"            3 7 6 e e w y s n 7 7 4 4 ; ; 5 e 5 e h             ",
"                w t y b b y l r 4 4 & $ $ = ; : 3 q             ",
"                    u b Z e e e 4 = $ $ # # $ ;                 ",
"                        z j i i 5 % @ > @ @ @                   ",
"                                                                ",
"                                                                ",
"                                                                ",
"                                                                "
};
