/* XPM */
static char *floor[] = {
/* columns rows colors chars-per-pixel */
"32 32 171 2 ",
"   c #0B150C",
".  c #0D180E",
"X  c #111E12",
"o  c #0F200F",
"O  c #0E2011",
"+  c #122213",
"@  c #132915",
"#  c #172618",
"$  c #182619",
"%  c #162C1A",
"&  c #1A2B1A",
"*  c #17311C",
"=  c #1B341C",
"-  c #1E391F",
";  c #21331F",
":  c #21381E",
">  c #182F21",
",  c #173621",
"<  c #1D3322",
"1  c #1D3A23",
"2  c #1D3928",
"3  c #233423",
"4  c #223B24",
"5  c #293C25",
"6  c #233C2A",
"7  c #2A3C2A",
"8  c #253D31",
"9  c #264127",
"0  c #294027",
"q  c #24412B",
"w  c #2B442C",
"e  c #2D492E",
"r  c #32472F",
"t  c #244331",
"y  c #2D4532",
"u  c #2C4B35",
"i  c #2D4B3A",
"p  c #324432",
"a  c #384732",
"s  c #334A34",
"d  c #394D35",
"f  c #334D3A",
"g  c #3A4E3B",
"h  c #365037",
"j  c #385237",
"k  c #34523B",
"l  c #3C533C",
"z  c #3C593D",
"x  c #41553D",
"c  c #42583D",
"v  c #485C3F",
"b  c #355542",
"n  c #3D5642",
"m  c #365842",
"M  c #3C5A43",
"N  c #365548",
"B  c #3B5748",
"V  c #365A48",
"C  c #3C5D4B",
"Z  c #3E604A",
"A  c #3F6251",
"S  c #425543",
"D  c #435B44",
"F  c #495D45",
"G  c #445D4A",
"H  c #495E49",
"J  c #466347",
"K  c #4C6246",
"L  c #44634C",
"P  c #4B644C",
"I  c #4D694C",
"U  c #506447",
"Y  c #51654C",
"T  c #52694C",
"R  c #586E4D",
"E  c #446453",
"W  c #4A6552",
"Q  c #456855",
"!  c #4B6A53",
"~  c #466B5A",
"^  c #4C6C5A",
"/  c #526651",
"(  c #536C54",
")  c #586D54",
"_  c #526E59",
"`  c #4B7057",
"'  c #4C725E",
"]  c #547153",
"[  c #5B7254",
"{  c #54735C",
"}  c #5B745B",
"|  c #56795E",
" . c #5D785D",
".. c #60755A",
"X. c #647B5C",
"o. c #4E7362",
"O. c #4F7863",
"+. c #547462",
"@. c #5B7462",
"#. c #557B65",
"$. c #5B7B63",
"%. c #5B7668",
"&. c #547C69",
"*. c #5B7D6A",
"=. c #627662",
"-. c #637C63",
";. c #637C6B",
":. c #5F8166",
">. c #5E826C",
",. c #618165",
"<. c #6F8365",
"1. c #62836C",
"2. c #6A826B",
"3. c #72896D",
"4. c #648571",
"5. c #6C8673",
"6. c #658A74",
"7. c #6A8C75",
"8. c #6C8778",
"9. c #6B8D7A",
"0. c #6B8D78",
"q. c #728C77",
"w. c #748971",
"e. c #788C77",
"r. c #728F7D",
"t. c #6B9079",
"y. c #6C907A",
"u. c #6F907A",
"i. c #6F937B",
"p. c #6F947D",
"a. c #709177",
"s. c #7B9073",
"d. c #70917D",
"f. c #72937F",
"g. c #75937F",
"h. c #70947D",
"j. c #73967E",
"k. c #74977F",
"l. c #71927A",
"z. c #7B9279",
"x. c #80967C",
"c. c #739081",
"v. c #759280",
"b. c #779480",
"n. c #769781",
"m. c #749782",
"M. c #789280",
"N. c #799484",
"B. c #7B9786",
"V. c #769882",
"C. c #759B83",
"Z. c #7B9983",
"A. c #7A9C87",
"S. c #7A9F86",
"D. c #7C9E87",
"F. c #7C9E87",
"G. c #7E9A8A",
"H. c #7C9E88",
"J. c #7AA087",
"K. c #7DA189",
"L. c #7FA58D",
"P. c #879D86",
"I. c #859C8C",
"U. c #83A28E",
"Y. c #80A48C",
"T. c #82A68E",
"R. c #83A88F",
"E. c #84A391",
"W. c #87A391",
"Q. c #86A492",
"!. c #93B2A0",
/* pixels */
"S %.N.c.4.4.@.@.%.>.0.d.c.8.W.N.A.A.W.!.W.I.r.N.G ;.*.8.5.;.c.5.",
"$.1.*.+.+.~ O.~ ' *.6.4.d.c.D.V.u.V.6.u.1.>.1.>.N ' &.O.^ { *.@.",
">.&.*.*.' ^ ~ +.+.4.c.0.0.d.A.R.1.6.d.8.$.*.>.L Q *.*.>.+.$.$._ ",
"^ &.O.O.&.^ O.+.+.&.{ 6.6.u.T.L.6.u.&.V.1.>.>.Q P *.4.8.*.&.} ! ",
"C ~ &.&.&.&.^ ~ +.1.6.6.*.c.L.D.L.D.8.0.*.{ { ! G >.>.8.*.{ { { ",
"O.*.O.~ Q ^ ^ ^ $.1.4.$.+.d.D.V.A.J.8.8.6.+.Q L L 8.&.6.u.{ ) ,.",
"Q Q A ' Q ~ +._ +.$.P _ _ 8.u.1.6.d.6.1.8.1.$.! P 1.1.>.^ W ! { ",
"B 8 i N i b N N & S g g f ^ +.f L +.Q Z L l e 4 k G N M p p i s ",
"C Q $.^ +.%.1.q.-.@.-.2.8.4.{ D.d.D.6.4.c.T.d.4.P ;.W -.$.{ { 1.",
"f Q ~ Q Q ' *.) _ } ) { { ' ^ $.8.>.&.' 4.D.d.} g W P I L L ] { ",
"N L _ { ^ $.-.] H P P L L C ^ 1.1.$.&.>.:.a.1.I w F ) ) W Q M M ",
"G _ { ! L L ) P ) -.{ ! ! ` | { $.:.,.1.-.,.[ [ p ) [ P ! L P G ",
"L ) ^ / F P F / -.:. .$.Q ! ^ ^ P { ) ]  .X.Y T F } ..) I I ) I ",
"W ^ L { T H H ) [ $.1.+._ ) ! @.) ! L ] [ U T ) d T R X.R -.,.,.",
"C G G T v F Y Y K L G b i k P ) { 1.] X.3...K F d [ [ [ [ X...} ",
"N k y d p 7 w p $ p 6 < < < s l g P x F F P g a 3 P T c s s p l ",
"g F ) ..=.) ) ) ! Q L P F ) 5._ z.2.;.e.} z.<.-.z.P.2.q.z.s.q.) ",
"g s x d l x l l f w l N N G } ;.H ) ) [ P ) K P L 1.$...} [ X. .",
"x x d i i m s g x r F M f b L } l -...T ) Y P p F L $.1. .1.) <.",
"T l w 2 t t i f f k Z z k L { l F P  .-.X.] F K l L ! { } ) ) X.",
"K l w t i b C m g k V C b Q ^ F Y ] } ) ] I T W F z s M L Y ) ) ",
"F s w e b i k g k t Q Z Q W ) g P I T ! l k z s F P F M M P ) X.",
"s l j F y k i 6 k k i s l F M f F l F T L L I W i k L F F P J F ",
"3 4 w w q s w 3 < 5 3 < 7 < 6 < 6 6 4 p l s F y 6 w y s s l S 7 ",
"l k i h F P F l x l d d H F / p N W M ] 2. .{ L N G G P P G ) { ",
"4 4 1 q q w l 7 s w s l L F g $ < 6 q F K P P s l F s w f k F k ",
"q 1 q 1 = i s p p y s i M k < O * 1 i C M C M w h z s i e s J s ",
": = 9 e w s s w 3 = 1 i q 1 * O % , t b k M i 4 > 4 e k z M l w ",
"5 w e r - 4 w 4 * = q s w = * + % 1 1 4 q C t < % q s s i q w 4 ",
"& 4 w w w 4 = < @ = 9 6 4 = = + @ 1 4 1 1 4 % % 6 w w 4 q 4 e & ",
"@ = - = = 7 9 = + 4 s w 3 w 5 # X @ w w 1 % % . < y s 4 1 w = 4 ",
"& 3 & % @ + o + . + & : 4 : +   X O o & +       $ + & + % 4 3 + "
};
