/* XPM */
static char *player[] = {
/* columns rows colors chars-per-pixel */
"32 32 251 2 ",
"   c None",
".  c black",
"X  c #060303",
"o  c #040401",
"O  c #060505",
"+  c #0A0505",
"@  c #090802",
"#  c #04060C",
"$  c #150000",
"%  c #130004",
"&  c #180208",
"*  c #110909",
"=  c #150B0A",
"-  c #1C0F0F",
";  c #1D0F0F",
":  c #131104",
">  c #141304",
",  c #161107",
"<  c #1A1805",
"1  c #1D1718",
"2  c #2B0000",
"3  c #310012",
"4  c #310A10",
"5  c #281515",
"6  c #2B1616",
"7  c #2F1515",
"8  c #2C1717",
"9  c #2E1717",
"0  c #201A1A",
"q  c #292507",
"w  c #262309",
"e  c #2A2708",
"r  c #2D2908",
"t  c #352906",
"y  c #312D09",
"u  c #332F0A",
"i  c #342F0A",
"p  c #343009",
"a  c #35310A",
"s  c #3B360B",
"d  c #3D380B",
"f  c #362E12",
"g  c #383219",
"h  c #2F2827",
"j  c #352728",
"k  c #33292A",
"l  c #363333",
"z  c #4A001A",
"x  c #741F1A",
"c  c #403B0D",
"v  c #620023",
"b  c #452323",
"n  c #4D2827",
"m  c #542E27",
"M  c #592D2D",
"N  c #5C2E2E",
"B  c #503436",
"V  c #563839",
"C  c #6D3737",
"Z  c #47420E",
"A  c #4C420F",
"S  c #4B450D",
"D  c #4E480D",
"F  c #4B4511",
"G  c #554E13",
"H  c #5D5612",
"J  c #714318",
"K  c #665E18",
"L  c #706713",
"P  c #7A6F15",
"I  c #4D4C3A",
"U  c #7E7521",
"Y  c #79722C",
"T  c #787234",
"R  c #1A2049",
"E  c #1D244D",
"W  c #1E2655",
"Q  c #202541",
"!  c #2A2D4F",
"~  c #26316D",
"^  c #283776",
"/  c #293A7C",
"(  c #4F3F40",
")  c #4E3F41",
"_  c #563F40",
"`  c #4E4243",
"'  c #584446",
"]  c #5B4A4C",
"[  c #7F4040",
"{  c #794645",
"}  c #634F51",
"|  c #665254",
" . c #7A744C",
".. c #686953",
"X. c #56797C",
"o. c #666767",
"O. c #7D6D68",
"+. c #8E3C1E",
"@. c #D40000",
"#. c #D70C06",
"$. c #D70808",
"%. c #D80E0D",
"&. c #D91503",
"*. c #DA1B01",
"=. c #DB0011",
"-. c #D91110",
";. c #DB1715",
":. c #DF1320",
">. c #E30725",
",. c #DF2522",
"<. c #DF3636",
"1. c #E12E2B",
"2. c #E8203A",
"3. c #E72F3D",
"4. c #E43935",
"5. c #E63934",
"6. c #F3373B",
"7. c #8D6C1B",
"8. c #827716",
"9. c #995F23",
"0. c #B75F25",
"q. c #B04830",
"w. c #AF6323",
"e. c #B06223",
"r. c #B76C3A",
"t. c #AC763D",
"y. c #C54F2B",
"u. c #C64F2B",
"i. c #DB4E2F",
"p. c #CD542C",
"a. c #EA542C",
"s. c #F44336",
"d. c #B60041",
"f. c #C40046",
"g. c #CD0049",
"h. c #F00F4F",
"j. c #EC1745",
"k. c #E50052",
"l. c #F40355",
"z. c #F40057",
"x. c #F10C50",
"c. c #EC2343",
"v. c #F12A41",
"b. c #F42843",
"n. c #E43140",
"m. c #ED3741",
"M. c #F62E51",
"N. c #894545",
"B. c #934A4A",
"V. c #985744",
"C. c #B75C5C",
"Z. c #AC7241",
"A. c #B57546",
"S. c #BD754E",
"D. c #BE4A6E",
"F. c #9A7B7E",
"G. c #E55254",
"H. c #C0744F",
"J. c #D36B6B",
"K. c #CF7062",
"L. c #E76465",
"P. c #E47373",
"I. c #9B8F1E",
"U. c #998D23",
"Y. c #9C873C",
"T. c #BCA324",
"R. c #F69417",
"E. c #F28F28",
"W. c #ED8433",
"Q. c #F9AE32",
"!. c #FEC107",
"~. c #FADD36",
"^. c #FEEB3B",
"/. c #AF8C52",
"(. c #B68F5B",
"). c #AD9466",
"_. c #B49A61",
"`. c #DE8779",
"'. c #CC9777",
"]. c #CF9A7B",
"[. c #FFD55A",
"{. c #334291",
"}. c #37469D",
"|. c #3C4DAC",
" X c #3F51B5",
".X c #3D56B8",
"XX c #515D98",
"oX c #587D8F",
"OX c #65709D",
"+X c #4354AB",
"@X c #4055B1",
"#X c #4C78D4",
"$X c #6674C4",
"%X c #FB7BA1",
"&X c #2CA496",
"*X c #3B92A4",
"=X c #27A2A0",
"-X c #418CAA",
";X c #7C83A6",
":X c #198DC3",
">X c #1698CA",
",X c #149ACA",
"<X c #1F9FCE",
"1X c #2086C4",
"2X c #2C80DD",
"3X c #09ACCF",
"4X c #00BCD4",
"5X c #1C9BEC",
"6X c #1A9EED",
"7X c #2788E7",
"8X c #268BE9",
"9X c #258EEC",
"0X c #2C96EB",
"qX c #2196F3",
"wX c #2498F3",
"eX c #329EF4",
"rX c #3EAEEF",
"tX c #4B81CF",
"yX c #4884CD",
"uX c #4B86CD",
"iX c #48A8F5",
"pX c #4DABF5",
"aX c #52CFE1",
"sX c #55D2E2",
"dX c #A88386",
"fX c #A68589",
"gX c #C89699",
"hX c #D59A9B",
"jX c #E98384",
"kX c #EF8886",
"lX c #E29880",
"zX c #EB9495",
"xX c #CDAB87",
"cX c #ECA19D",
"vX c #CCA4A8",
"bX c #E7ACAF",
"nX c #EEABAD",
"mX c #F6A5A9",
"MX c #F4A9AC",
"NX c #FAB3AE",
"BX c #E0B5B9",
"VX c #F9BBBF",
"CX c #CDC8A2",
"ZX c #D5D1B1",
"AX c #8C97D3",
"SX c #EBBEC2",
"DX c #F5C5CA",
"FX c #FECDD2",
"GX c #CCF1F6",
"HX c #E3F1FD",
"JX c #FEFEFE",
/* pixels */
"                              @.@.@.@.@.@.@.@.@.                ",
"                              $.$.$.$.$.#.*.&.$.                ",
"                      @.@.@.@.1.4.4.4.4.a.!.R.4.;.@.            ",
"                      %.;.;.;.2.c.c.m.W.E.!.Q.kX<.@.            ",
"                    @.,.4.4.4.x.l.l.M.^.~.!.[.JXL.@.            ",
"                @.;.1.j.x.x.x.l.k.z 4 i i t f l 9 2 % .         ",
"                =.:.3.h.l.g.f.f.d.& . . . . . . . . . .         ",
"            @.>.l.l.l.l.l.3 . . . . . . . . . . . . . . . .     ",
"            @.n.%XD.v v v % . C { = ; N.C . 9 N.N               ",
"            @.G.FXF.. . . . . C.J.; 9 P.C.. n P.                ",
"        . B mX].Y.).vX( . B.C.nXbX1 j VXgX. _ VX(.8.8.8.        ",
"        . ( FXxX8._.FX} . C.P.VXSX1 k FXvX. ' FX_.8.8.8.        ",
"        . b P.S.8._.FX} . . . vXFXFXFXFXFXFXFXFXFXFXFXFX_.8.    ",
"        . 9 N.V.t.'.FX} . ` | BXDXfXdXMXMXMXMXMXMXMXMXMX/.8.    ",
"        . . . N P.zXFX} . vXFXFXSX0 9 P.P.P.P.P.P.P.P.P.t.8.    ",
"            . = 9 { jXhXvXDXFX] h . + 9 9 9 9 9 9 9 9 9         ",
"            . . . m K.cXVXVXVXV 9 . . . . . . . . . . .         ",
"                . i 8.H.P.P.P.P.J.; . . . . . . . .             ",
"              J x +.0.r.A.A.A.A.Z.A d d g W E                   ",
"8.8.8.8.8.8.8.e.s.s.s.w.8.8.8.8.8.8.8.8.T  X X                  ",
"8.8.ZXZXZXZXZXlXs.s.s.i.p.y.y.oX-X-X*X&X=X,X1X                  ",
"8.8.JXJXJXJXJXNXs.s.s.s.s.4.4.tXqXqX6X4X4X4X,X X                ",
"    8.8.JXJXJXNXs.s.s.s.s.tXqXqXeXHXJXJXGX4XaXJXAX XE . . .     ",
"        CXCXCX`.v.v.v.6.s.tXqXqXeXHXJXJXGX4XsXJX;X~ I K w .     ",
"        8.8.8.q.l.l.l.v.s.tXqXqXeXHXJXJXGX4XsXJXo.. U.^.K . . . ",
"        < s 8.7.9.O.#XtXtX0XqXqXqXiXiXiXrX4X<X$X! . H I.c . . . ",
"        . q 8.U Y X.9X9X9XqXqXqXqXqXqXqX6X3X:X}.Q , A L r . . . ",
"        . q 8...+X@X.X.X.X7XqXqXqXqXqXqX9X.X/ # F P p @ . .     ",
"        . q 8. .OXXX{.|. X2X7X7X7X7X7X7X2X X^ . D 8.i . . .     ",
"        . q 8.T.^.U..      X X X X X X X X    . D 8.i . . .     ",
"          , p Z K G                             e p , . .       ",
"            . . .                                 . . .         "
};
