/* XPM */
static char *wall[] = {
/* columns rows colors chars-per-pixel */
"32 32 125 2 ",
"   c #0E0E0C",
".  c #100F0C",
"X  c #0F100D",
"o  c #11110E",
"O  c #151513",
"+  c #181714",
"@  c #1A1A16",
"#  c #161618",
"$  c #1D1C1A",
"%  c #201F1C",
"&  c #1F201D",
"*  c #222217",
"=  c #22211D",
"-  c #1F1F20",
";  c #252522",
":  c #282725",
">  c #272824",
",  c #292A25",
"<  c #272728",
"1  c #2C2D2A",
"2  c #2F302C",
"3  c #31322D",
"4  c #2F3030",
"5  c #343531",
"6  c #373833",
"7  c #393A35",
"8  c #3D3E39",
"9  c #3E4037",
"0  c #3F403A",
"q  c #42433D",
"w  c #46483E",
"e  c #434541",
"r  c #474843",
"t  c #494B45",
"y  c #4D4F49",
"u  c #4D4E4B",
"i  c #4D4E4C",
"p  c #4E4F4C",
"a  c #4B4D48",
"s  c #4E5047",
"d  c #4E5049",
"f  c #4F5049",
"g  c #4F504B",
"h  c #4F524B",
"j  c #4D504D",
"k  c #505149",
"l  c #505248",
"z  c #51524A",
"x  c #50524C",
"c  c #51534D",
"v  c #52524C",
"b  c #51534F",
"n  c #52524E",
"m  c #52534E",
"M  c #52534F",
"N  c #52544C",
"B  c #53544D",
"V  c #53544E",
"C  c #53544F",
"Z  c #53554F",
"A  c #55574F",
"S  c #53554E",
"D  c #535451",
"F  c #545550",
"G  c #555650",
"H  c #555651",
"J  c #565752",
"K  c #575850",
"L  c #575851",
"P  c #575A51",
"I  c #565852",
"U  c #575953",
"Y  c #575B54",
"T  c #585952",
"R  c #585953",
"E  c #595A52",
"W  c #5A5B53",
"Q  c #5B5C51",
"!  c #5D5E53",
"~  c #585B54",
"^  c #595B54",
"/  c #585A55",
"(  c #585B56",
")  c #595B56",
"_  c #595C56",
"`  c #5A5C56",
"'  c #5B5D56",
"]  c #5C5D56",
"[  c #5C5E56",
"{  c #5C5E57",
"}  c #5E5F57",
"|  c #5C5D58",
" . c #5D5E58",
".. c #5D5F59",
"X. c #5E5F58",
"o. c #5E6058",
"O. c #5F6059",
"+. c #5F615A",
"@. c #5E605B",
"#. c #5E625A",
"$. c #606159",
"%. c #606358",
"&. c #61645A",
"*. c #61635C",
"=. c #60635D",
"-. c #63645E",
";. c #63665E",
":. c #62665F",
">. c #62675F",
",. c #64665E",
"<. c #67695D",
"1. c #67685F",
"2. c #636760",
"3. c #636960",
"4. c #666960",
"5. c #656962",
"6. c #686C65",
"7. c #6A6E65",
"8. c #6C6F66",
"9. c #6B6F68",
"0. c #6E7165",
"q. c #6C7269",
"w. c #6E726A",
"e. c #6F746B",
"r. c #71766D",
/* pixels */
"8 7 7 d 1.-.t ! -.!  .! 1.! -.8.d Y -.G M ! -.M 7 5 e t t q 1 3 ",
" .G 7 7 r 8 , 1 , 5 8 1 , t w t 5 Y Y  .M G q e e r q.r.8.! u  .",
" .M e 6 e  .5.t ! o.! 7 7 ! M 7 ; 7 e t e 5 3 3 1 M -.q.! ! Y  .",
"M u 5 6 M -. .Y M ! 0.! 1 7 0 1 3 ; 1 , ; = ; , ; d M ! t G t #.",
"t q ; $ , q t d u d M q 1 3 q 8 , , 5 7 5 1 % 1 3 6 r 0 e M 7 t ",
"3 1 1 , , 1 1 , 3 ; 1 , > 3 3 7 -.-.9.8.u r 8 u Y t , 7 q 7 1 3 ",
"5 1 3 3 = , , $ 5 #.5.! ! 5.q.q ! #.! #.-.M e G t 0 1 % $ , ; ; ",
"1 q M M q 1 $ 1 5 r t ! Y -.5.7 3 u u t u e ; 3 1 , ; = 7 8 7 1 ",
"8 q q q q 0 $ $ ; , 3 9 q l q ; 3 , > ; , ; > 1 $ 1 = 1 8 5 ; = ",
"5 3 , , , ; = , 1 ; > ; , ; 7 7 7 3 , 2 ; 7 3 7 5 5 , 5 2 3 , 2 ",
"e 8 5 6 8 0 , 8 t s w 5 3 , q M t t u M 8 1 % $ ; = ; ; 3 r t u ",
"q 8 q q r t 5 6 0 q q 3 , $ M q 7 u q 8 6 1 e 5 1 $ 1 , e r u t ",
"3 7 q q 8 e , = ; , , , = $ ; 7 8 5 e 0 , e u 8 5 1 $ ; 1 7 7 5 ",
"$ 1 7 5 ; , $ , = $ = $ , % ; , , ; 1 1 5 q u q 1 ; $ ; $ $ = 1 ",
"5 1 5 1 = ; 7 0 8 0 7 7 ; $ $ = ; ; ; ; $ , 1 , $ $ $ $ ; 1 1 2 ",
"7 8 0 7 ; ; q M M u q 7 ; 3 7 6 5 1 1 7 ; ; 1 1 $ $ $ 1 3 q q 7 ",
"3 5 1 , $ $ = , 5 7 ; $ 3 0 t q ; , 1 1 , $ > , $ # $ 3 1 8 0 2 ",
"; $ ; ; $ $ O O O $ = $ $ $ = = $ ; = ; , $ $ , ; , $ = = $ $ $ ",
"7 e e q $ $ = $ $ ; 3 5 7 2 5 1 = ; 1 , 3 % 5 7 7 7 7 O ; = 1 1 ",
"q q 6 5 = $ $ O ; ; , 1 , ; 3 = ; $ ; 6 5 = 1 3 1 1 = $ ; ; 1 8 ",
"5 3 , % $ O $ = $ ; , $ ; = $ $ 2 q ; = = O $ = ; $ O O $ = ; 2 ",
"$ $ $ O $ ; > $ > 3 8 5 1 = = $ ; 3 8 8 $ $ O $ $ $ $ $ $ O $ = ",
"; $ $ $ ; ; ; $ ; 6 5 5 2 5 , $ O $ = = $ $ ; $ = , = $ $ $ , , ",
"1 ;   $ $ O O $ $ = $ = $ , = , 3 ; ; 1 $ O O $ , , 5 8 ; , 3 3 ",
"= = o $ , ; = $ O $ $ O o O 3 > > > 1 1 ; = O , 7 5 2 1 $ 1 3 , ",
"$ $ o $ = = ; $ $ , 1 , 1 ; = ; > ; 1 , 1 , O , 1 , = , $ 1 1 = ",
"$ O o O $ $ = $ $ ; 3 ; ; = $ $ = = $ ; 1 $ $ $ = = = $ O $ O $ ",
"O   O $ ; ; 1 ; = $ $ = $ $ O O O O O $ O   O o O O $ = $ o $ o ",
"    $ O $ $ = ; $ $ o O $ $ O O $ $ $ O o O O X o X o       o O ",
"o   o + $ * O = ; ; $ O $ % $ + $ $ O   $ $ # # O o o O o   o O ",
"$ O   O   .   o O O O O       o O o O $   O O O O O O $ $ $ # O ",
"o X       O O O O o o O + + O O o o O O     O O     . O O O O o "
};
